<?xml version="1.0" standalone="no"?>
<!DOCTYPE svg PUBLIC "-//W3C//DTD SVG 20010904//EN"
 "http://www.w3.org/TR/2001/REC-SVG-20010904/DTD/svg10.dtd">
<svg version="1.0" xmlns="http://www.w3.org/2000/svg"
 width="256.000000pt" height="256.000000pt" viewBox="0 0 256.000000 256.000000"
 preserveAspectRatio="xMidYMid meet">
<metadata>
Created by potrace 1.14, written by Peter Selinger 2001-2017
</metadata>
<g transform="translate(0.000000,256.000000) scale(0.100000,-0.100000)"
fill="#000000" stroke="none">
<path d="M1145 2549 c-417 -44 -796 -303 -987 -675 -25 -49 -57 -122 -72 -162
-94 -263 -94 -591 0 -854 259 -724 1093 -1054 1775 -702 342 177 579 491 660
877 30 143 30 361 0 504 -82 389 -320 703 -667 880 -151 77 -282 115 -454 133
-107 11 -142 11 -255 -1z m-107 -1156 c-3 -440 -3 -449 -26 -504 -31 -77 -90
-142 -160 -176 -52 -25 -68 -27 -167 -28 -60 0 -122 3 -137 8 -26 7 -28 11
-28 56 0 63 19 85 64 74 17 -4 58 -8 91 -8 84 1 140 33 174 100 l26 49 3 426
c1 234 4 431 7 438 3 8 29 12 80 12 l76 0 -3 -447z m772 427 c120 -23 210 -83
258 -175 25 -46 27 -60 27 -165 0 -101 -3 -120 -23 -158 -78 -147 -200 -202
-444 -202 l-138 0 0 -215 0 -215 -80 0 -80 0 0 570 0 570 214 0 c117 0 237 -5
266 -10z"/>
<path d="M1490 1475 l0 -235 110 0 c137 0 199 13 253 54 117 88 119 288 2 368
-51 35 -119 48 -256 48 l-109 0 0 -235z"/>
</g>
</svg>
